<mxfile host="65bd71144e">
    <diagram id="2rRhkEUvp0PWZ_gKyBbF" name="Page-1">
        <mxGraphModel dx="774" dy="567" grid="1" gridSize="10" guides="1" tooltips="1" connect="1" arrows="1" fold="1" page="1" pageScale="1" pageWidth="827" pageHeight="1169" math="0" shadow="0">
            <root>
                <mxCell id="0"/>
                <mxCell id="1" parent="0"/>
                <mxCell id="4" value="" style="edgeStyle=none;html=1;" edge="1" parent="1" source="2" target="3">
                    <mxGeometry relative="1" as="geometry"/>
                </mxCell>
                <mxCell id="2" value="Start" style="ellipse;whiteSpace=wrap;html=1;" vertex="1" parent="1">
                    <mxGeometry x="294" y="20" width="120" height="40" as="geometry"/>
                </mxCell>
                <mxCell id="6" style="edgeStyle=none;html=1;entryX=0.5;entryY=0;entryDx=0;entryDy=0;" edge="1" parent="1" source="3" target="5">
                    <mxGeometry relative="1" as="geometry"/>
                </mxCell>
                <mxCell id="3" value="string[] array1&lt;br&gt;string[] array2&lt;br&gt;int j = 0" style="whiteSpace=wrap;html=1;" vertex="1" parent="1">
                    <mxGeometry x="294" y="110" width="120" height="60" as="geometry"/>
                </mxCell>
                <mxCell id="8" style="edgeStyle=none;html=1;entryX=0.5;entryY=0;entryDx=0;entryDy=0;" edge="1" parent="1" source="5" target="7">
                    <mxGeometry relative="1" as="geometry">
                        <mxPoint x="350" y="320" as="targetPoint"/>
                    </mxGeometry>
                </mxCell>
                <mxCell id="5" value="void threeSymbols" style="rounded=1;whiteSpace=wrap;html=1;" vertex="1" parent="1">
                    <mxGeometry x="294" y="210" width="120" height="60" as="geometry"/>
                </mxCell>
                <mxCell id="10" value="" style="edgeStyle=none;html=1;" edge="1" parent="1" source="7" target="9">
                    <mxGeometry relative="1" as="geometry"/>
                </mxCell>
                <mxCell id="18" style="edgeStyle=none;html=1;entryX=0;entryY=0.5;entryDx=0;entryDy=0;" edge="1" parent="1" source="7" target="17">
                    <mxGeometry relative="1" as="geometry"/>
                </mxCell>
                <mxCell id="7" value="for int i = 0; &lt;br&gt;i &amp;lt; array1.Length:&lt;br&gt;i++" style="shape=hexagon;perimeter=hexagonPerimeter2;whiteSpace=wrap;html=1;fixedSize=1;" vertex="1" parent="1">
                    <mxGeometry x="294" y="310" width="120" height="80" as="geometry"/>
                </mxCell>
                <mxCell id="11" style="edgeStyle=none;html=1;entryX=0;entryY=0.5;entryDx=0;entryDy=0;" edge="1" parent="1" source="9" target="7">
                    <mxGeometry relative="1" as="geometry">
                        <Array as="points">
                            <mxPoint x="240" y="475"/>
                            <mxPoint x="240" y="350"/>
                        </Array>
                    </mxGeometry>
                </mxCell>
                <mxCell id="12" value="NO" style="edgeLabel;html=1;align=center;verticalAlign=middle;resizable=0;points=[];" vertex="1" connectable="0" parent="11">
                    <mxGeometry x="-0.2594" y="-1" relative="1" as="geometry">
                        <mxPoint x="9" y="33" as="offset"/>
                    </mxGeometry>
                </mxCell>
                <mxCell id="14" style="edgeStyle=none;html=1;entryX=0.5;entryY=0;entryDx=0;entryDy=0;" edge="1" parent="1" source="9" target="13">
                    <mxGeometry relative="1" as="geometry">
                        <Array as="points">
                            <mxPoint x="354" y="550"/>
                        </Array>
                    </mxGeometry>
                </mxCell>
                <mxCell id="9" value="if (array1[i].Length &amp;lt;= 3)" style="rhombus;whiteSpace=wrap;html=1;" vertex="1" parent="1">
                    <mxGeometry x="269" y="430" width="170" height="90" as="geometry"/>
                </mxCell>
                <mxCell id="16" style="edgeStyle=none;html=1;entryX=0;entryY=0.5;entryDx=0;entryDy=0;" edge="1" parent="1" source="13" target="7">
                    <mxGeometry relative="1" as="geometry">
                        <Array as="points">
                            <mxPoint x="190" y="600"/>
                            <mxPoint x="190" y="350"/>
                        </Array>
                    </mxGeometry>
                </mxCell>
                <mxCell id="13" value="array2[j] = array1[i]&lt;br&gt;j++" style="rounded=0;whiteSpace=wrap;html=1;" vertex="1" parent="1">
                    <mxGeometry x="294" y="570" width="120" height="60" as="geometry"/>
                </mxCell>
                <mxCell id="15" value="YES" style="text;html=1;align=center;verticalAlign=middle;resizable=0;points=[];autosize=1;strokeColor=none;fillColor=none;" vertex="1" parent="1">
                    <mxGeometry x="355" y="530" width="40" height="20" as="geometry"/>
                </mxCell>
                <mxCell id="19" style="edgeStyle=none;html=1;" edge="1" parent="1" source="17" target="20">
                    <mxGeometry relative="1" as="geometry">
                        <mxPoint x="560" y="440" as="targetPoint"/>
                    </mxGeometry>
                </mxCell>
                <mxCell id="17" value="Print(array2)" style="shape=document;whiteSpace=wrap;html=1;boundedLbl=1;" vertex="1" parent="1">
                    <mxGeometry x="500" y="310" width="120" height="80" as="geometry"/>
                </mxCell>
                <mxCell id="20" value="End" style="ellipse;whiteSpace=wrap;html=1;" vertex="1" parent="1">
                    <mxGeometry x="500" y="440" width="120" height="40" as="geometry"/>
                </mxCell>
            </root>
        </mxGraphModel>
    </diagram>
</mxfile>